<svg width="98" height="23" viewBox="0 0 98 23" fill="none" xmlns="http://www.w3.org/2000/svg">
<path d="M21.1658 5.1266C21.0144 5.8583 20.8124 6.85008 20.5076 7.93632C20.2292 9.00062 19.9008 9.9199 19.698 10.6044C19.3953 11.5962 18.1842 13.3196 17.0185 13.2724C16.3359 13.2485 16.513 12.4935 16.5887 12.0212C16.715 11.3128 16.9428 10.0849 17.1192 8.83366C17.3219 7.37025 17.495 4.44878 17.545 3.66985C17.1659 3.69313 12.6375 4.01242 11.1183 4.03038C9.0937 4.05499 6.63728 5.23635 5.96394 5.62282C4.4889 6.46893 2.66634 5.26894 1.41246 4.27649C0.906957 3.87738 0.401456 3.14568 2.09502 3.47428C4.67452 3.99313 17.1192 3.40311 17.549 3.19092C18.2822 2.83637 19.8244 2.95478 21.2909 3.14369C22.658 3.30865 21.2422 4.77272 21.1658 5.1266Z" fill="#5A5FE8"/>
<path d="M9.71638 14.3081C9.71638 13.3602 9.67491 12.7569 9.47745 12.3218C9.45991 12.2831 9.45449 12.2398 9.46189 12.1979C9.4693 12.1559 9.4892 12.1172 9.51892 12.087C9.54104 12.0641 9.56816 12.0468 9.5981 12.0364C9.62805 12.026 9.65999 12.0228 9.69136 12.0271C12.9218 12.4615 13.8631 12.6963 13.8631 13.1866C13.8631 13.456 13.7071 13.6336 12.9982 13.8517C12.9558 13.8648 12.9187 13.8912 12.8923 13.9271C12.8659 13.963 12.8516 14.0066 12.8514 14.0513V18.7741C12.8509 18.8295 12.8721 18.883 12.9105 18.9226C12.9489 18.9623 13.0012 18.9849 13.0561 18.9856H17.9558C17.9884 18.9852 18.0204 18.977 18.0493 18.9616C18.0781 18.9463 18.1029 18.9241 18.1216 18.8971C19.29 17.2435 19.7579 16.7313 19.9811 16.7313C20.2042 16.7313 20.5122 16.8876 21.5739 17.8003C22.6356 18.7129 22.8127 18.9743 22.8127 19.2085C22.8127 19.4426 22.6863 19.5218 22.2822 19.5218H6.35361C3.86033 19.5218 1.66786 19.5696 0.331704 19.7107C0.283055 19.7153 0.234373 19.7021 0.194513 19.6736C0.154652 19.645 0.126259 19.6029 0.114495 19.555L0.00720744 19.1366C-0.0289938 18.9949 0.0809269 18.7907 0.221783 18.804C1.69024 18.9371 3.84191 18.9843 6.35361 18.9843H9.51299C9.56787 18.9836 9.62023 18.9609 9.6586 18.9213C9.69697 18.8816 9.71822 18.8282 9.71769 18.7728L9.71638 14.3081Z" fill="#5A5FE8"/>
<path d="M43.2585 11.7111C41.2115 11.8761 31.8716 12.1834 30.858 12.1103C29.974 12.0397 29.0637 11.8269 28.6346 11.4963C28.2054 11.1657 27.9013 10.4107 27.9013 9.63378V5.11586C27.9013 4.64358 27.2951 4.33693 26.4355 3.95911C26.0564 3.79415 24.8183 3.48683 26.3348 2.94404C26.6883 2.82564 30.3781 2.89682 31.0607 3.34315C31.1614 3.41433 39.0381 3.31987 39.8471 2.77642C40.6053 2.25758 41.6413 2.11589 43.3599 2.32809C44.9264 2.517 44.7244 3.83938 43.3342 4.05157C42.8498 4.1274 41.0233 3.79814 39.8458 3.72297C36.976 3.53938 32.3047 3.74958 31.247 3.78284L31.2101 9.58389C31.2101 9.91648 31.2147 11.2109 31.3154 11.2582C31.5939 11.3998 31.8466 11.3759 32.175 11.3759C32.3771 11.3759 39.3784 11.4883 40.3894 10.8976C41.5742 10.2132 42.6504 9.41893 43.7371 9.48944C45.1542 9.58589 45.1792 11.5429 43.2585 11.7111Z" fill="#5A5FE8"/>
<path d="M34.3589 14.8195C34.3589 13.9615 34.3174 13.4153 34.12 13.0236C34.1029 12.9884 34.0977 12.9485 34.1052 12.91C34.1126 12.8716 34.1324 12.8367 34.1614 12.8107C34.1847 12.7897 34.2121 12.774 34.2419 12.7646C34.2716 12.7552 34.303 12.7523 34.3339 12.7562C37.563 13.1499 38.5036 13.3621 38.5036 13.8065C38.5036 14.0499 38.3483 14.2109 37.6394 14.4051C37.5985 14.4152 37.562 14.4385 37.5354 14.4716C37.5089 14.5046 37.4939 14.5455 37.4926 14.5881V18.5073C37.4948 18.56 37.5176 18.6097 37.556 18.6455C37.5943 18.6812 37.6452 18.7002 37.6973 18.6982H42.595C42.6268 18.6984 42.6582 18.6914 42.6869 18.6777C42.7156 18.664 42.7409 18.644 42.7609 18.6191C43.9285 17.1217 44.3959 17.0153 44.6197 17.0153C44.8434 17.0153 45.1502 17.157 46.2118 17.9832C47.2735 18.8093 47.4499 19.0474 47.4499 19.2583C47.4499 19.4692 47.3236 19.5417 46.9194 19.5417H30.9981C28.5055 19.5417 26.3137 19.5849 24.9788 19.7133C24.9319 19.7187 24.8846 19.7075 24.8449 19.6817C24.8052 19.6559 24.7756 19.617 24.761 19.5716L24.6537 18.8399C24.6175 18.7115 24.7274 18.5266 24.8689 18.5379C26.3361 18.6596 28.489 18.7009 30.9981 18.7009H34.1575C34.2095 18.7027 34.2602 18.6836 34.2984 18.6479C34.3366 18.6121 34.3593 18.5626 34.3615 18.51L34.3589 14.8195Z" fill="#5A5FE8"/>
<path d="M51.3551 15.8273C51.75 14.8674 52.8472 13.112 53.9879 13.1593C54.6599 13.1832 54.4855 13.9382 54.4111 14.4105C54.2867 15.1189 54.0629 16.3468 53.8885 17.598C53.6911 19.0614 53.7786 19.3388 54.2907 19.6601C54.6639 19.6361 59.2496 19.6335 60.7411 19.6149C62.7328 19.5909 65.151 18.4095 65.8093 18.0231C67.2573 17.177 69.0522 18.3763 70.285 19.3687C70.7826 19.7678 71.2796 20.4995 69.6137 20.1716C67.0769 19.6521 54.7047 19.9262 54.2821 20.139C53.5581 20.4929 52.0442 20.3752 50.6014 20.1862C49.2659 20.0199 50.8772 16.9807 51.3551 15.8273Z" fill="#5A5FE8"/>
<path d="M60.4976 5.23303C61.3645 4.3694 62.1186 3.39722 62.7414 2.34015C63.597 2.17386 63.8643 1.98827 63.8307 1.69626C63.7991 1.42287 63.549 1.23063 62.5933 0.679858C61.6804 0.143056 61.3091 -0.0159229 61.1452 0.00137186C61.0182 0.0146755 60.8234 0.159685 60.3218 0.856796C60.4298 1.18939 60.408 1.37564 60.3481 1.4834C60.3481 1.4834 59.0429 3.58936 58.2314 4.48071C56.915 4.00843 55.6867 3.19425 54.912 2.06011L54.5546 2.08805C55.0272 3.49557 55.8144 4.7521 56.9834 5.73325C54.9068 7.54454 52.376 8.81104 49.4141 9.64784L49.4568 9.84075C52.9868 9.47689 56.0961 8.52568 58.6177 6.78689C60.1362 7.53722 65.0523 9.60062 67.154 9.81813C67.458 9.84667 67.7639 9.848 68.0682 9.82212C68.294 9.79884 68.344 9.69507 68.452 9.36847C68.76 8.42989 69.2958 7.6656 70.0626 7.29044L70.0402 7.09554C67.7733 7.23124 62.5933 6.16894 60.4976 5.23303Z" fill="#5A5FE8"/>
<path d="M70.7622 11.1704L70.6569 10.7913C70.6435 10.746 70.6147 10.7069 70.5755 10.6811C70.5363 10.6553 70.4894 10.6443 70.443 10.6502C69.1266 10.778 66.9723 10.8212 64.5191 10.8212H48.8539C48.4589 10.8212 48.3319 10.8924 48.3319 11.1046C48.3319 11.3168 48.5057 11.5536 49.5502 12.3797C50.5948 13.2059 50.893 13.3476 51.1168 13.3476C51.3406 13.3476 51.7974 12.8859 52.9459 11.3886C52.9654 11.3637 52.9902 11.3435 53.0184 11.3297C53.0467 11.3159 53.0777 11.3087 53.1092 11.3088H57.9285C57.9801 11.3077 58.0301 11.3271 58.0677 11.3627C58.1054 11.3984 58.1277 11.4476 58.1299 11.4997V15.5433C58.1299 16.4014 58.0891 16.9482 57.895 17.3393C57.8779 17.3744 57.8726 17.4142 57.88 17.4527C57.8874 17.4911 57.9069 17.526 57.9358 17.5522C57.9585 17.5731 57.9854 17.5888 58.0148 17.5981C58.0441 17.6074 58.0751 17.6101 58.1056 17.6061C61.2827 17.2129 62.2082 17.0001 62.2082 16.5557C62.2082 16.3123 62.0548 16.152 61.3584 15.9571C61.3178 15.9469 61.2816 15.9234 61.2554 15.8904C61.2292 15.8573 61.2145 15.8165 61.2136 15.7741V11.497C61.2158 11.4449 61.2382 11.3958 61.2758 11.3601C61.3135 11.3244 61.3634 11.305 61.415 11.3061H64.5211C66.9894 11.3061 69.1081 11.3474 70.5522 11.4691C70.6898 11.4837 70.7977 11.2981 70.7622 11.1704Z" fill="#5A5FE8"/>
<path d="M87.7195 5.96999L87.6208 6.34848C87.6093 6.39239 87.5827 6.43075 87.5458 6.4567C87.5089 6.48265 87.4641 6.49451 87.4194 6.49016C86.1852 6.36178 84.7912 6.42364 82.4868 6.42364H73.1567C72.7829 6.42364 72.6664 6.35247 72.6664 6.14027C72.6664 5.92808 72.8296 5.69128 73.811 4.86512C74.7924 4.03896 75.0721 3.89728 75.2827 3.89728C75.4934 3.89728 75.9219 4.35892 77.0007 5.85624C77.0184 5.88072 77.0416 5.90067 77.0683 5.91453C77.0951 5.92838 77.1246 5.93575 77.1547 5.93606H79.3998C79.4247 5.93606 79.4493 5.9311 79.4723 5.92147C79.4952 5.91183 79.5161 5.89771 79.5336 5.87991C79.5512 5.86211 79.5651 5.84099 79.5745 5.81775C79.584 5.79451 79.5888 5.76962 79.5887 5.74449V3.11769C79.5887 2.2596 79.5499 1.71282 79.3676 1.32169C79.3517 1.28651 79.3468 1.24727 79.3537 1.20922C79.3605 1.17118 79.3787 1.13615 79.4057 1.10884C79.4266 1.08812 79.4518 1.07249 79.4795 1.06316C79.5072 1.05382 79.5367 1.05101 79.5657 1.05496C82.5506 1.44808 83.4201 1.66094 83.4201 2.10528C83.4201 2.34874 83.276 2.50905 82.6211 2.70394C82.582 2.71566 82.5477 2.73979 82.5233 2.77273C82.4989 2.80568 82.4856 2.8457 82.4855 2.88687V5.74715C82.4854 5.77228 82.4902 5.79717 82.4997 5.82041C82.5091 5.84365 82.523 5.86478 82.5406 5.88257C82.5581 5.90037 82.579 5.91449 82.6019 5.92413C82.6249 5.93376 82.6495 5.93872 82.6744 5.93872C82.6744 5.93872 86.1069 5.95801 87.5194 5.66799C87.6497 5.64205 87.7531 5.84161 87.7195 5.96999Z" fill="#5A5FE8"/>
<path d="M91.5864 11.0633C95.5211 11.2702 97.9999 13.0629 97.9999 15.2693C97.9999 16.5331 97.295 17.2229 96.2945 17.2229C95.5666 17.2229 94.9525 16.6948 94.7247 15.9132C94.1567 13.9589 93.1101 12.4649 91.5864 11.4771L91.7226 21.6437C91.7226 22.7472 90.8815 23 89.4486 23C88.6975 23 88.6067 22.9541 88.6067 22.1266L88.7463 11.0015V3.69377C88.7463 2.52105 88.6804 1.9929 88.4738 1.57915L88.6554 1.4408C91.9306 1.80864 92.3855 2.08469 92.3855 2.40664C92.3855 2.68203 92.2262 2.82038 91.5897 3.0053L91.5864 11.0633Z" fill="#5A5FE8"/>
<path d="M89.8508 19.1034C88.2481 19.4326 82.9107 19.41 82.9107 19.41C82.8825 19.41 82.8547 19.4044 82.8287 19.3935C82.8027 19.3826 82.7791 19.3666 82.7592 19.3464C82.7393 19.3263 82.7236 19.3024 82.7129 19.2761C82.7021 19.2498 82.6967 19.2216 82.6968 19.1932V15.9444C82.6974 15.9162 82.7035 15.8884 82.7148 15.8626C82.7261 15.8368 82.7423 15.8135 82.7626 15.7941C82.8027 15.7854 82.8422 15.7768 82.8817 15.7668C82.8817 15.7668 86.4077 15.075 86.2221 11.9407C86.0674 9.37905 83.5518 8.87352 82.5237 8.72917C82.5144 8.67396 82.5026 8.61742 82.4875 8.56022C82.1965 7.44471 81.2764 6.87997 79.3175 6.78418L79.1589 6.97509C79.8119 7.31233 80.2239 7.86377 80.4214 8.62075C80.3779 8.65401 76.4135 9.10101 76.3346 12.1276C76.2687 14.6945 78.4408 15.536 79.4077 15.7721C79.4077 15.9098 79.4117 16.0535 79.4117 16.2091V19.1925C79.4117 19.25 79.3891 19.3052 79.3488 19.3458C79.3086 19.3865 79.254 19.4093 79.1971 19.4093H76.6479C76.6138 19.4091 76.5803 19.4008 76.55 19.3851C76.5197 19.3694 76.4935 19.3467 76.4734 19.3189C75.2492 17.62 74.7582 17.0958 74.5238 17.0958C74.2895 17.0958 73.967 17.2568 72.854 18.194C71.741 19.1313 71.5547 19.4 71.5547 19.6408C71.5547 19.8816 71.6863 19.9621 72.1115 19.9621H82.6981C85.3125 19.9621 88.3369 19.8896 89.7409 20.0353C89.7916 20.0402 89.8424 20.0268 89.8841 19.9972C89.9259 19.9677 89.9558 19.9241 89.9686 19.8743L90.0812 19.4446C90.1141 19.3002 89.9969 19.0734 89.8508 19.1034ZM81.198 14.9919C79.9567 14.9919 78.9509 13.7506 78.9509 12.2194C78.9509 10.6881 79.9567 9.44757 81.198 9.44757C82.4394 9.44757 83.4458 10.6888 83.4458 12.2194C83.4458 13.75 82.4394 14.9919 81.198 14.9919Z" fill="#5A5FE8"/>
</svg>
